<svg width="18" height="16" viewBox="0 0 20 20" fill="none" xmlns="http://www.w3.org/2000/svg">
<path fill-rule="evenodd" clip-rule="evenodd" d="M9.6 1.09961C4.3064 1.09961 0 4.64681 0 9.00601C0 11.0652 0.9416 12.9948 2.66 14.4716L0.7328 18.3196C0.656 18.4724 0.6848 18.6556 0.8032 18.7772C0.8808 18.8572 0.9848 18.8988 1.0904 18.8988C1.148 18.8988 1.2048 18.886 1.2592 18.8612L6.4088 16.4644C7.4312 16.7612 8.504 16.9116 9.6008 16.9116C14.8944 16.9116 19.2008 13.3644 19.2008 9.00601C19.2 4.64681 14.8936 1.09961 9.6 1.09961ZM6 6.69961H11.2C11.4208 6.69961 11.6 6.87881 11.6 7.09961C11.6 7.32041 11.4208 7.49961 11.2 7.49961H6C5.7792 7.49961 5.6 7.32041 5.6 7.09961C5.6 6.87881 5.7792 6.69961 6 6.69961ZM13.6 12.2996H6C5.7792 12.2996 5.6 12.1212 5.6 11.8996C5.6 11.6796 5.7792 11.4996 6 11.4996H13.6C13.8208 11.4996 14 11.6796 14 11.8996C14 12.1212 13.8208 12.2996 13.6 12.2996ZM13.6 9.89961H6C5.7792 9.89961 5.6 9.72041 5.6 9.49961C5.6 9.27881 5.7792 9.09961 6 9.09961H13.6C13.8208 9.09961 14 9.27881 14 9.49961C14 9.72041 13.8208 9.89961 13.6 9.89961Z" fill="#262626"/>
</svg>
