<?xml version="1.0" encoding="utf-8"?>
<!-- Generator: Adobe Illustrator 16.0.0, SVG Export Plug-In . SVG Version: 6.00 Build 0)  -->
<!DOCTYPE svg PUBLIC "-//W3C//DTD SVG 1.1//EN" "http://www.w3.org/Graphics/SVG/1.1/DTD/svg11.dtd">
<svg version="1.1" id="Filled_Version" xmlns="http://www.w3.org/2000/svg" xmlns:xlink="http://www.w3.org/1999/xlink" x="0px"
	 y="0px" width="24px" height="24px" viewBox="0 0 24 24" fill="#0067C5" enable-background="new 0 0 24 24" xml:space="preserve">
<g>
	<path d="M5,10h14V5H5V10z M11,7h3c0.276,0,0.5,0.225,0.5,0.5C14.5,7.776,14.276,8,14,8h-3c-0.276,0-0.5-0.224-0.5-0.5
		C10.5,7.225,10.724,7,11,7z"/>
	<path d="M5,19h14v-5H5V19z M11,16h3c0.276,0,0.5,0.225,0.5,0.5c0,0.276-0.224,0.5-0.5,0.5h-3c-0.276,0-0.5-0.224-0.5-0.5
		C10.5,16.225,10.724,16,11,16z"/>
	<path d="M23.5,1h-23C0.224,1,0,1.225,0,1.5C0,1.776,0.224,2,0.5,2H1v18.5C1,21.878,2.121,23,3.5,23h2v0.5C5.5,23.776,5.724,24,6,24
		s0.5-0.224,0.5-0.5V23h12v0.5c0,0.276,0.224,0.5,0.5,0.5s0.5-0.224,0.5-0.5V23h1c1.378,0,2.5-1.122,2.5-2.5V2h0.5
		C23.776,2,24,1.776,24,1.5C24,1.225,23.776,1,23.5,1z M20,19.5c0,0.276-0.224,0.5-0.5,0.5h-15C4.224,20,4,19.776,4,19.5v-6
		C4,13.225,4.224,13,4.5,13h15c0.276,0,0.5,0.225,0.5,0.5V19.5z M20,10.5c0,0.276-0.224,0.5-0.5,0.5h-15C4.224,11,4,10.776,4,10.5
		v-6C4,4.225,4.224,4,4.5,4h15C19.776,4,20,4.225,20,4.5V10.5z"/>
</g>
</svg>
