<svg width="34" height="34" xmlns="http://www.w3.org/2000/svg"><path d="M27.625 0a.71.71 0 01.708.708v11.315l4.8 3.301-8.744 6.052a.706.706 0 00-.178.986.705.705 0 00.984.179L34 16.445v14.722A2.835 2.835 0 0131.167 34H2.833A2.837 2.837 0 010 31.167V16.344l8.802 6.194a.706.706 0 00.987-.171.711.711 0 00-.171-.988L.94 15.273l4.726-3.25V.708A.71.71 0 016.375 0zm-5.667 22.667h-9.916a.696.696 0 00-.44.157L4.517 28.49a.707.707 0 10.884 1.105l6.889-5.513h9.42l6.889 5.513a.708.708 0 00.885-1.106l-7.083-5.668a.708.708 0 00-.444-.155zm4.959-21.25H7.083v17h19.834v-17zm-3.542 14.166a.71.71 0 010 1.417h-12.75a.71.71 0 010-1.417zm0-4.25a.71.71 0 010 1.417h-12.75a.71.71 0 010-1.417zm0-4.25a.71.71 0 010 1.417h-9.917a.71.71 0 010-1.417zm-9.917-4.25a.71.71 0 010 1.417h-2.833a.71.71 0 010-1.417z" fill="#FF9100" fill-rule="evenodd"/></svg>