<?xml version="1.0" encoding="utf-8"?>
<!-- Generator: Adobe Illustrator 16.0.0, SVG Export Plug-In . SVG Version: 6.00 Build 0)  -->
<!DOCTYPE svg PUBLIC "-//W3C//DTD SVG 1.1//EN" "http://www.w3.org/Graphics/SVG/1.1/DTD/svg11.dtd">
<svg width="24" height="24" viewBox="0 0 24 24" fill="none" xmlns="http://www.w3.org/2000/svg">
	<path fill-rule="evenodd" clip-rule="evenodd" d="M4.50098 11.5C4.50098 12.327 3.82698 13 3.00098 13C2.17398 13 1.50098 12.327 1.50098 11.5C1.50098 10.672 2.17398 10 3.00098 10C3.27898 10 3.53798 10.082 3.76198 10.215L7.59898 7.018C7.53798 6.856 7.50098 6.682 7.50098 6.5C7.50098 5.672 8.17398 5 9.00098 5C9.81798 5 10.482 5.659 10.498 6.472L13.824 7.58C14.1 7.229 14.522 7 15.001 7C15.19 7 15.371 7.04 15.539 7.103L19.705 2.243C19.579 2.023 19.501 1.772 19.501 1.5C19.501 0.672 20.174 0 21.001 0C21.827 0 22.501 0.672 22.501 1.5C22.501 2.327 21.827 3 21.001 3C20.811 3 20.63 2.96 20.463 2.895L16.296 7.756C16.423 7.978 16.501 8.228 16.501 8.5C16.501 9.327 15.827 10 15.001 10C14.183 10 13.519 9.341 13.504 8.527L10.177 7.419C9.90198 7.77 9.47998 8 9.00098 8C8.72198 8 8.46398 7.918 8.23898 7.785L4.40298 10.982C4.46298 11.144 4.50098 11.318 4.50098 11.5ZM23.001 23H23.501C23.776 23 24.001 23.224 24.001 23.5C24.001 23.775 23.776 24 23.501 24H0.500977C0.224977 24 0.000976562 23.775 0.000976562 23.5C0.000976562 23.224 0.224977 23 0.500977 23H1.00098V18.5C1.00098 18.224 1.22498 18 1.50098 18H4.50098C4.77598 18 5.00098 18.224 5.00098 18.5V23H7.00098V13.5C7.00098 13.224 7.22498 13 7.50098 13H10.501C10.776 13 11.001 13.224 11.001 13.5V23H13.001V15.5C13.001 15.224 13.225 15 13.501 15H16.501C16.776 15 17.001 15.224 17.001 15.5V23H19.001V8.5C19.001 8.224 19.225 8 19.501 8H22.501C22.776 8 23.001 8.224 23.001 8.5V23Z" fill="#000000"/>
</svg>