<?xml version="1.0" encoding="utf-8"?>
<!-- Generator: Adobe Illustrator 16.0.0, SVG Export Plug-In . SVG Version: 6.00 Build 0)  -->
<!DOCTYPE svg PUBLIC "-//W3C//DTD SVG 1.1//EN" "http://www.w3.org/Graphics/SVG/1.1/DTD/svg11.dtd">
<svg version="1.1" id="Filled_Version" xmlns="http://www.w3.org/2000/svg" xmlns:xlink="http://www.w3.org/1999/xlink" x="0px"
	 y="0px" width="24px" height="24px" viewBox="0 0 24 24" enable-background="new 0 0 24 24" xml:space="preserve">
<g>
	<path d="M12,0C5.383,0,0,5.382,0,12c0,6.616,5.383,12,12,12s12-5.384,12-12C24,5.382,18.617,0,12,0z M12.321,20.487
		c-2.129,0-3.547-0.702-5.089-1.753L18.735,7.231c0.68,1,1.752,2.535,1.752,5.089C20.487,16.823,16.824,20.487,12.321,20.487z
		 M11.667,3.5c2.124,0,3.545,0.699,5.089,1.752L5.252,16.755c-0.682-1-1.752-2.536-1.752-5.089C3.5,7.163,7.164,3.5,11.667,3.5z"/>
</g>
</svg>
