<?xml version="1.0" encoding="utf-8"?>
<!-- Generator: Adobe Illustrator 16.0.0, SVG Export Plug-In . SVG Version: 6.00 Build 0)  -->
<!DOCTYPE svg PUBLIC "-//W3C//DTD SVG 1.1//EN" "http://www.w3.org/Graphics/SVG/1.1/DTD/svg11.dtd">
<svg version="1.1" id="Filled_Version" xmlns="http://www.w3.org/2000/svg" xmlns:xlink="http://www.w3.org/1999/xlink" x="0px"
	 y="0px" width="24px" height="24px" viewBox="0 0 24 24" fill="#0067C5" enable-background="new 0 0 24 24" xml:space="preserve">
<g>
	<path d="M4.001,13C5.379,13,6.5,11.878,6.5,10.5C6.5,9.122,5.379,8,4.001,8S1.5,9.122,1.5,10.5C1.5,11.878,2.623,13,4.001,13z"/>
	<path d="M0,14.5c0,2.389,0.16,4.589,2,5.313V24h4v-4.187c1.84-0.725,2-2.925,2-5.313V14H0V14.5z"/>
	<path d="M20.001,13c1.378,0,2.499-1.122,2.499-2.5c0-1.378-1.121-2.5-2.499-2.5S17.5,9.122,17.5,10.5
		C17.5,11.878,18.623,13,20.001,13z"/>
	<path d="M16,14v0.5c0,2.389,0.16,4.589,2,5.313V24h4v-4.187c1.84-0.725,2-2.925,2-5.313V14H16z"/>
	<path d="M12.001,5C13.379,5,14.5,3.878,14.5,2.5c0-1.378-1.121-2.5-2.499-2.5S9.5,1.122,9.5,2.5C9.5,3.878,10.623,5,12.001,5z"/>
	<path d="M16,6H8v0.5c0,2.389,0.16,4.589,2,5.313V16h4v-4.187c1.84-0.725,2-2.925,2-5.313V6z"/>
</g>
</svg>
