<?xml version="1.0" encoding="UTF-8"?>
<svg width="25px" height="33px" viewBox="0 0 25 33" version="1.1" xmlns="http://www.w3.org/2000/svg" xmlns:xlink="http://www.w3.org/1999/xlink">
    <!-- Generator: Sketch 43.2 (39069) - http://www.bohemiancoding.com/sketch -->
    <title>Timeglass</title>
    <desc>Created with Sketch.</desc>
    <defs></defs>
    <g id="Symbols" stroke="none" stroke-width="1" fill="none" fill-rule="evenodd">
        <g id="Timeglass-" fill="#262626">
            <g id="Filled_Version">
                <path fill-rule="evenodd" clip-rule="evenodd" d="M24.1875 31.625H22.125V26.8125V25.4375C22.125 21.3978 19.6198 17.9369 16.0846 16.5124C19.2568 15.2295 22.125 11.902 22.125 7.5625V1.375H24.1875C24.5656 1.375 24.875 1.067 24.875 0.6875C24.875 0.308 24.5656 0 24.1875 0H21.4375H3.5625H0.8125C0.434375 0 0.125 0.308 0.125 0.6875C0.125 1.067 0.434375 1.375 0.8125 1.375H2.875V7.5625C2.875 11.9254 5.76937 15.2405 8.91537 16.5124C5.38025 17.9369 2.875 21.3978 2.875 25.4375V26.8125V31.625H0.8125C0.434375 31.625 0.125 31.933 0.125 32.3125C0.125 32.692 0.434375 33 0.8125 33H3.5625H21.4375H24.1875C24.5656 33 24.875 32.692 24.875 32.3125C24.875 31.933 24.5656 31.625 24.1875 31.625ZM5.81337 12.375C4.833 11.0192 4.25 9.35962 4.25 7.5625V1.375H20.75V7.5625C20.75 9.35962 20.167 11.0192 19.1866 12.375H5.81337ZM20.75 26.125H16.9096L12.9854 22.2008C12.7172 21.9326 12.2814 21.9326 12.0133 22.2008L8.09037 26.125H4.25V25.4375C4.25 20.8876 7.95012 17.1875 12.5 17.1875C17.0499 17.1875 20.75 20.8876 20.75 25.4375V26.125Z" fill="#262626"/>
            </g>
        </g>
    </g>
</svg>
